<svg xmlns="http://www.w3.org/2000/svg" xmlns:svgjs="http://svgjs.dev/svgjs" xmlns:xlink="http://www.w3.org/1999/xlink" width="800" height="800" version="1.1" viewBox="0 0 800 800"><g fill="none" stroke="hsl(261, 60%, 38%)" stroke-width="3.5"><circle cx="0" cy="0" r="4.289" fill="hsl(261, 60%, 38%)" stroke="none"/><circle cx="50" cy="0" r="4.289" fill="hsl(261, 60%, 38%)" stroke="none"/><circle cx="100" cy="0" r="4.289" fill="hsl(261, 60%, 38%)" stroke="none"/><circle cx="150" cy="0" r="4.289" fill="hsl(261, 60%, 38%)" stroke="none"/><circle cx="200" cy="0" r="4.289" fill="hsl(261, 60%, 38%)" stroke="none"/><circle cx="250" cy="0" r="4.289" fill="hsl(261, 60%, 38%)" stroke="none"/><circle cx="300" cy="0" r="4.289" fill="hsl(261, 60%, 38%)" stroke="none"/><circle cx="350" cy="0" r="4.289" fill="hsl(261, 60%, 38%)" stroke="none"/><circle cx="400" cy="0" r="4.289" fill="hsl(261, 60%, 38%)" stroke="none"/><circle cx="450" cy="0" r="4.289" fill="hsl(261, 60%, 38%)" stroke="none"/><circle cx="500" cy="0" r="4.289" fill="hsl(261, 60%, 38%)" stroke="none"/><circle cx="550" cy="0" r="4.289" fill="hsl(261, 60%, 38%)" stroke="none"/><circle cx="600" cy="0" r="4.289" fill="hsl(261, 60%, 38%)" stroke="none"/><circle cx="650" cy="0" r="4.289" fill="hsl(261, 60%, 38%)" stroke="none"/><circle cx="700" cy="0" r="4.289" fill="hsl(261, 60%, 38%)" stroke="none"/><circle cx="750" cy="0" r="4.289" fill="hsl(261, 60%, 38%)" stroke="none"/><circle cx="800" cy="0" r="4.289" fill="hsl(261, 60%, 38%)" stroke="none"/><circle cx="0" cy="66.667" r="4.289" fill="hsl(261, 60%, 38%)" stroke="none"/><circle cx="50" cy="66.667" r="4.289" fill="hsl(261, 60%, 38%)" stroke="none"/><circle cx="100" cy="66.667" r="4.289" fill="hsl(261, 60%, 38%)" stroke="none"/><circle cx="150" cy="66.667" r="4.289" fill="hsl(261, 60%, 38%)" stroke="none"/><circle cx="200" cy="66.667" r="4.289" fill="hsl(261, 60%, 38%)" stroke="none"/><circle cx="250" cy="66.667" r="4.289" fill="hsl(261, 60%, 38%)" stroke="none"/><circle cx="300" cy="66.667" r="4.289" fill="hsl(261, 60%, 38%)" stroke="none"/><circle cx="350" cy="66.667" r="4.289" fill="hsl(261, 60%, 38%)" stroke="none"/><circle cx="400" cy="66.667" r="4.289" fill="hsl(261, 60%, 38%)" stroke="none"/><circle cx="450" cy="66.667" r="4.289" fill="hsl(261, 60%, 38%)" stroke="none"/><circle cx="500" cy="66.667" r="4.289" fill="hsl(261, 60%, 38%)" stroke="none"/><circle cx="550" cy="66.667" r="4.289" fill="hsl(261, 60%, 38%)" stroke="none"/><circle cx="600" cy="66.667" r="4.289" fill="hsl(261, 60%, 38%)" stroke="none"/><circle cx="650" cy="66.667" r="4.289" fill="hsl(261, 60%, 38%)" stroke="none"/><circle cx="700" cy="66.667" r="4.289" fill="hsl(261, 60%, 38%)" stroke="none"/><circle cx="750" cy="66.667" r="4.289" fill="hsl(261, 60%, 38%)" stroke="none"/><circle cx="800" cy="66.667" r="4.289" fill="hsl(261, 60%, 38%)" stroke="none"/><circle cx="0" cy="133.333" r="4.289" fill="hsl(261, 60%, 38%)" stroke="none"/><circle cx="50" cy="133.333" r="4.289" fill="hsl(261, 60%, 38%)" stroke="none"/><circle cx="100" cy="133.333" r="4.289" fill="hsl(261, 60%, 38%)" stroke="none"/><circle cx="150" cy="133.333" r="4.289" fill="hsl(261, 60%, 38%)" stroke="none"/><circle cx="200" cy="133.333" r="4.289" fill="hsl(261, 60%, 38%)" stroke="none"/><circle cx="250" cy="133.333" r="4.289" fill="hsl(261, 60%, 38%)" stroke="none"/><circle cx="300" cy="133.333" r="4.289" fill="hsl(261, 60%, 38%)" stroke="none"/><circle cx="350" cy="133.333" r="4.289" fill="hsl(261, 60%, 38%)" stroke="none"/><circle cx="400" cy="133.333" r="4.289" fill="hsl(261, 60%, 38%)" stroke="none"/><circle cx="450" cy="133.333" r="4.289" fill="hsl(261, 60%, 38%)" stroke="none"/><circle cx="500" cy="133.333" r="4.289" fill="hsl(261, 60%, 38%)" stroke="none"/><circle cx="550" cy="133.333" r="4.289" fill="hsl(261, 60%, 38%)" stroke="none"/><circle cx="600" cy="133.333" r="4.289" fill="hsl(261, 60%, 38%)" stroke="none"/><circle cx="650" cy="133.333" r="4.289" fill="hsl(261, 60%, 38%)" stroke="none"/><circle cx="700" cy="133.333" r="4.289" fill="hsl(261, 60%, 38%)" stroke="none"/><circle cx="750" cy="133.333" r="4.289" fill="hsl(261, 60%, 38%)" stroke="none"/><circle cx="800" cy="133.333" r="4.289" fill="hsl(261, 60%, 38%)" stroke="none"/><circle cx="0" cy="200" r="4.289" fill="hsl(261, 60%, 38%)" stroke="none"/><circle cx="50" cy="200" r="4.289" fill="hsl(261, 60%, 38%)" stroke="none"/><circle cx="100" cy="200" r="4.289" fill="hsl(261, 60%, 38%)" stroke="none"/><circle cx="150" cy="200" r="4.289" fill="hsl(261, 60%, 38%)" stroke="none"/><circle cx="200" cy="200" r="4.289" fill="hsl(261, 60%, 38%)" stroke="none"/><circle cx="250" cy="200" r="4.289" fill="hsl(261, 60%, 38%)" stroke="none"/><circle cx="300" cy="200" r="4.289" fill="hsl(261, 60%, 38%)" stroke="none"/><circle cx="350" cy="200" r="4.289" fill="hsl(261, 60%, 38%)" stroke="none"/><circle cx="400" cy="200" r="4.289" fill="hsl(261, 60%, 38%)" stroke="none"/><circle cx="450" cy="200" r="4.289" fill="hsl(261, 60%, 38%)" stroke="none"/><circle cx="500" cy="200" r="4.289" fill="hsl(261, 60%, 38%)" stroke="none"/><circle cx="550" cy="200" r="4.289" fill="hsl(261, 60%, 38%)" stroke="none"/><circle cx="600" cy="200" r="4.289" fill="hsl(261, 60%, 38%)" stroke="none"/><circle cx="650" cy="200" r="4.289" fill="hsl(261, 60%, 38%)" stroke="none"/><circle cx="700" cy="200" r="4.289" fill="hsl(261, 60%, 38%)" stroke="none"/><circle cx="750" cy="200" r="4.289" fill="hsl(261, 60%, 38%)" stroke="none"/><circle cx="800" cy="200" r="4.289" fill="hsl(261, 60%, 38%)" stroke="none"/><circle cx="0" cy="266.667" r="4.289" fill="hsl(261, 60%, 38%)" stroke="none"/><circle cx="50" cy="266.667" r="4.289" fill="hsl(261, 60%, 38%)" stroke="none"/><circle cx="100" cy="266.667" r="4.289" fill="hsl(261, 60%, 38%)" stroke="none"/><circle cx="150" cy="266.667" r="4.289" fill="hsl(261, 60%, 38%)" stroke="none"/><circle cx="200" cy="266.667" r="4.289" fill="hsl(261, 60%, 38%)" stroke="none"/><circle cx="250" cy="266.667" r="4.289" fill="hsl(261, 60%, 38%)" stroke="none"/><circle cx="300" cy="266.667" r="4.289" fill="hsl(261, 60%, 38%)" stroke="none"/><circle cx="350" cy="266.667" r="4.289" fill="hsl(261, 60%, 38%)" stroke="none"/><circle cx="400" cy="266.667" r="4.289" fill="hsl(261, 60%, 38%)" stroke="none"/><circle cx="450" cy="266.667" r="4.289" fill="hsl(261, 60%, 38%)" stroke="none"/><circle cx="500" cy="266.667" r="4.289" fill="hsl(261, 60%, 38%)" stroke="none"/><circle cx="550" cy="266.667" r="4.289" fill="hsl(261, 60%, 38%)" stroke="none"/><circle cx="600" cy="266.667" r="4.289" fill="hsl(261, 60%, 38%)" stroke="none"/><circle cx="650" cy="266.667" r="4.289" fill="hsl(261, 60%, 38%)" stroke="none"/><circle cx="700" cy="266.667" r="4.289" fill="hsl(261, 60%, 38%)" stroke="none"/><circle cx="750" cy="266.667" r="4.289" fill="hsl(261, 60%, 38%)" stroke="none"/><circle cx="800" cy="266.667" r="4.289" fill="hsl(261, 60%, 38%)" stroke="none"/><circle cx="0" cy="333.333" r="4.289" fill="hsl(261, 60%, 38%)" stroke="none"/><circle cx="50" cy="333.333" r="4.289" fill="hsl(261, 60%, 38%)" stroke="none"/><circle cx="100" cy="333.333" r="4.289" fill="hsl(261, 60%, 38%)" stroke="none"/><circle cx="150" cy="333.333" r="4.289" fill="hsl(261, 60%, 38%)" stroke="none"/><circle cx="200" cy="333.333" r="4.289" fill="hsl(261, 60%, 38%)" stroke="none"/><circle cx="250" cy="333.333" r="4.289" fill="hsl(261, 60%, 38%)" stroke="none"/><circle cx="300" cy="333.333" r="4.289" fill="hsl(261, 60%, 38%)" stroke="none"/><circle cx="350" cy="333.333" r="4.289" fill="hsl(261, 60%, 38%)" stroke="none"/><circle cx="400" cy="333.333" r="4.289" fill="hsl(261, 60%, 38%)" stroke="none"/><circle cx="450" cy="333.333" r="4.289" fill="hsl(261, 60%, 38%)" stroke="none"/><circle cx="500" cy="333.333" r="4.289" fill="hsl(261, 60%, 38%)" stroke="none"/><circle cx="550" cy="333.333" r="4.289" fill="hsl(261, 60%, 38%)" stroke="none"/><circle cx="600" cy="333.333" r="4.289" fill="hsl(261, 60%, 38%)" stroke="none"/><circle cx="650" cy="333.333" r="4.289" fill="hsl(261, 60%, 38%)" stroke="none"/><circle cx="700" cy="333.333" r="4.289" fill="hsl(261, 60%, 38%)" stroke="none"/><circle cx="750" cy="333.333" r="4.289" fill="hsl(261, 60%, 38%)" stroke="none"/><circle cx="800" cy="333.333" r="4.289" fill="hsl(261, 60%, 38%)" stroke="none"/><circle cx="0" cy="400" r="4.289" fill="hsl(261, 60%, 38%)" stroke="none"/><circle cx="50" cy="400" r="4.289" fill="hsl(261, 60%, 38%)" stroke="none"/><circle cx="100" cy="400" r="4.289" fill="hsl(261, 60%, 38%)" stroke="none"/><circle cx="150" cy="400" r="4.289" fill="hsl(261, 60%, 38%)" stroke="none"/><circle cx="200" cy="400" r="4.289" fill="hsl(261, 60%, 38%)" stroke="none"/><circle cx="250" cy="400" r="4.289" fill="hsl(261, 60%, 38%)" stroke="none"/><circle cx="300" cy="400" r="4.289" fill="hsl(261, 60%, 38%)" stroke="none"/><circle cx="350" cy="400" r="4.289" fill="hsl(261, 60%, 38%)" stroke="none"/><circle cx="400" cy="400" r="4.289" fill="hsl(261, 60%, 38%)" stroke="none"/><circle cx="450" cy="400" r="4.289" fill="hsl(261, 60%, 38%)" stroke="none"/><circle cx="500" cy="400" r="4.289" fill="hsl(261, 60%, 38%)" stroke="none"/><circle cx="550" cy="400" r="4.289" fill="hsl(261, 60%, 38%)" stroke="none"/><circle cx="600" cy="400" r="4.289" fill="hsl(261, 60%, 38%)" stroke="none"/><circle cx="650" cy="400" r="4.289" fill="hsl(261, 60%, 38%)" stroke="none"/><circle cx="700" cy="400" r="4.289" fill="hsl(261, 60%, 38%)" stroke="none"/><circle cx="750" cy="400" r="4.289" fill="hsl(261, 60%, 38%)" stroke="none"/><circle cx="800" cy="400" r="4.289" fill="hsl(261, 60%, 38%)" stroke="none"/><circle cx="0" cy="466.667" r="4.289" fill="hsl(261, 60%, 38%)" stroke="none"/><circle cx="50" cy="466.667" r="4.289" fill="hsl(261, 60%, 38%)" stroke="none"/><circle cx="100" cy="466.667" r="4.289" fill="hsl(261, 60%, 38%)" stroke="none"/><circle cx="150" cy="466.667" r="4.289" fill="hsl(261, 60%, 38%)" stroke="none"/><circle cx="200" cy="466.667" r="4.289" fill="hsl(261, 60%, 38%)" stroke="none"/><circle cx="250" cy="466.667" r="4.289" fill="hsl(261, 60%, 38%)" stroke="none"/><circle cx="300" cy="466.667" r="4.289" fill="hsl(261, 60%, 38%)" stroke="none"/><circle cx="350" cy="466.667" r="4.289" fill="hsl(261, 60%, 38%)" stroke="none"/><circle cx="400" cy="466.667" r="4.289" fill="hsl(261, 60%, 38%)" stroke="none"/><circle cx="450" cy="466.667" r="4.289" fill="hsl(261, 60%, 38%)" stroke="none"/><circle cx="500" cy="466.667" r="4.289" fill="hsl(261, 60%, 38%)" stroke="none"/><circle cx="550" cy="466.667" r="4.289" fill="hsl(261, 60%, 38%)" stroke="none"/><circle cx="600" cy="466.667" r="4.289" fill="hsl(261, 60%, 38%)" stroke="none"/><circle cx="650" cy="466.667" r="4.289" fill="hsl(261, 60%, 38%)" stroke="none"/><circle cx="700" cy="466.667" r="4.289" fill="hsl(261, 60%, 38%)" stroke="none"/><circle cx="750" cy="466.667" r="4.289" fill="hsl(261, 60%, 38%)" stroke="none"/><circle cx="800" cy="466.667" r="4.289" fill="hsl(261, 60%, 38%)" stroke="none"/><circle cx="0" cy="533.333" r="4.289" fill="hsl(261, 60%, 38%)" stroke="none"/><circle cx="50" cy="533.333" r="4.289" fill="hsl(261, 60%, 38%)" stroke="none"/><circle cx="100" cy="533.333" r="4.289" fill="hsl(261, 60%, 38%)" stroke="none"/><circle cx="150" cy="533.333" r="4.289" fill="hsl(261, 60%, 38%)" stroke="none"/><circle cx="200" cy="533.333" r="4.289" fill="hsl(261, 60%, 38%)" stroke="none"/><circle cx="250" cy="533.333" r="4.289" fill="hsl(261, 60%, 38%)" stroke="none"/><circle cx="300" cy="533.333" r="4.289" fill="hsl(261, 60%, 38%)" stroke="none"/><circle cx="350" cy="533.333" r="4.289" fill="hsl(261, 60%, 38%)" stroke="none"/><circle cx="400" cy="533.333" r="4.289" fill="hsl(261, 60%, 38%)" stroke="none"/><circle cx="450" cy="533.333" r="4.289" fill="hsl(261, 60%, 38%)" stroke="none"/><circle cx="500" cy="533.333" r="4.289" fill="hsl(261, 60%, 38%)" stroke="none"/><circle cx="550" cy="533.333" r="4.289" fill="hsl(261, 60%, 38%)" stroke="none"/><circle cx="600" cy="533.333" r="4.289" fill="hsl(261, 60%, 38%)" stroke="none"/><circle cx="650" cy="533.333" r="4.289" fill="hsl(261, 60%, 38%)" stroke="none"/><circle cx="700" cy="533.333" r="4.289" fill="hsl(261, 60%, 38%)" stroke="none"/><circle cx="750" cy="533.333" r="4.289" fill="hsl(261, 60%, 38%)" stroke="none"/><circle cx="800" cy="533.333" r="4.289" fill="hsl(261, 60%, 38%)" stroke="none"/><circle cx="0" cy="600" r="4.289" fill="hsl(261, 60%, 38%)" stroke="none"/><circle cx="50" cy="600" r="4.289" fill="hsl(261, 60%, 38%)" stroke="none"/><circle cx="100" cy="600" r="4.289" fill="hsl(261, 60%, 38%)" stroke="none"/><circle cx="150" cy="600" r="4.289" fill="hsl(261, 60%, 38%)" stroke="none"/><circle cx="200" cy="600" r="4.289" fill="hsl(261, 60%, 38%)" stroke="none"/><circle cx="250" cy="600" r="4.289" fill="hsl(261, 60%, 38%)" stroke="none"/><circle cx="300" cy="600" r="4.289" fill="hsl(261, 60%, 38%)" stroke="none"/><circle cx="350" cy="600" r="4.289" fill="hsl(261, 60%, 38%)" stroke="none"/><circle cx="400" cy="600" r="4.289" fill="hsl(261, 60%, 38%)" stroke="none"/><circle cx="450" cy="600" r="4.289" fill="hsl(261, 60%, 38%)" stroke="none"/><circle cx="500" cy="600" r="4.289" fill="hsl(261, 60%, 38%)" stroke="none"/><circle cx="550" cy="600" r="4.289" fill="hsl(261, 60%, 38%)" stroke="none"/><circle cx="600" cy="600" r="4.289" fill="hsl(261, 60%, 38%)" stroke="none"/><circle cx="650" cy="600" r="4.289" fill="hsl(261, 60%, 38%)" stroke="none"/><circle cx="700" cy="600" r="4.289" fill="hsl(261, 60%, 38%)" stroke="none"/><circle cx="750" cy="600" r="4.289" fill="hsl(261, 60%, 38%)" stroke="none"/><circle cx="800" cy="600" r="4.289" fill="hsl(261, 60%, 38%)" stroke="none"/><circle cx="0" cy="666.667" r="4.289" fill="hsl(261, 60%, 38%)" stroke="none"/><circle cx="50" cy="666.667" r="4.289" fill="hsl(261, 60%, 38%)" stroke="none"/><circle cx="100" cy="666.667" r="4.289" fill="hsl(261, 60%, 38%)" stroke="none"/><circle cx="150" cy="666.667" r="4.289" fill="hsl(261, 60%, 38%)" stroke="none"/><circle cx="200" cy="666.667" r="4.289" fill="hsl(261, 60%, 38%)" stroke="none"/><circle cx="250" cy="666.667" r="4.289" fill="hsl(261, 60%, 38%)" stroke="none"/><circle cx="300" cy="666.667" r="4.289" fill="hsl(261, 60%, 38%)" stroke="none"/><circle cx="350" cy="666.667" r="4.289" fill="hsl(261, 60%, 38%)" stroke="none"/><circle cx="400" cy="666.667" r="4.289" fill="hsl(261, 60%, 38%)" stroke="none"/><circle cx="450" cy="666.667" r="4.289" fill="hsl(261, 60%, 38%)" stroke="none"/><circle cx="500" cy="666.667" r="4.289" fill="hsl(261, 60%, 38%)" stroke="none"/><circle cx="550" cy="666.667" r="4.289" fill="hsl(261, 60%, 38%)" stroke="none"/><circle cx="600" cy="666.667" r="4.289" fill="hsl(261, 60%, 38%)" stroke="none"/><circle cx="650" cy="666.667" r="4.289" fill="hsl(261, 60%, 38%)" stroke="none"/><circle cx="700" cy="666.667" r="4.289" fill="hsl(261, 60%, 38%)" stroke="none"/><circle cx="750" cy="666.667" r="4.289" fill="hsl(261, 60%, 38%)" stroke="none"/><circle cx="800" cy="666.667" r="4.289" fill="hsl(261, 60%, 38%)" stroke="none"/><circle cx="0" cy="733.333" r="4.289" fill="hsl(261, 60%, 38%)" stroke="none"/><circle cx="50" cy="733.333" r="4.289" fill="hsl(261, 60%, 38%)" stroke="none"/><circle cx="100" cy="733.333" r="4.289" fill="hsl(261, 60%, 38%)" stroke="none"/><circle cx="150" cy="733.333" r="4.289" fill="hsl(261, 60%, 38%)" stroke="none"/><circle cx="200" cy="733.333" r="4.289" fill="hsl(261, 60%, 38%)" stroke="none"/><circle cx="250" cy="733.333" r="4.289" fill="hsl(261, 60%, 38%)" stroke="none"/><circle cx="300" cy="733.333" r="4.289" fill="hsl(261, 60%, 38%)" stroke="none"/><circle cx="350" cy="733.333" r="4.289" fill="hsl(261, 60%, 38%)" stroke="none"/><circle cx="400" cy="733.333" r="4.289" fill="hsl(261, 60%, 38%)" stroke="none"/><circle cx="450" cy="733.333" r="4.289" fill="hsl(261, 60%, 38%)" stroke="none"/><circle cx="500" cy="733.333" r="4.289" fill="hsl(261, 60%, 38%)" stroke="none"/><circle cx="550" cy="733.333" r="4.289" fill="hsl(261, 60%, 38%)" stroke="none"/><circle cx="600" cy="733.333" r="4.289" fill="hsl(261, 60%, 38%)" stroke="none"/><circle cx="650" cy="733.333" r="4.289" fill="hsl(261, 60%, 38%)" stroke="none"/><circle cx="700" cy="733.333" r="4.289" fill="hsl(261, 60%, 38%)" stroke="none"/><circle cx="750" cy="733.333" r="4.289" fill="hsl(261, 60%, 38%)" stroke="none"/><circle cx="800" cy="733.333" r="4.289" fill="hsl(261, 60%, 38%)" stroke="none"/><circle cx="0" cy="800" r="4.289" fill="hsl(261, 60%, 38%)" stroke="none"/><circle cx="50" cy="800" r="4.289" fill="hsl(261, 60%, 38%)" stroke="none"/><circle cx="100" cy="800" r="4.289" fill="hsl(261, 60%, 38%)" stroke="none"/><circle cx="150" cy="800" r="4.289" fill="hsl(261, 60%, 38%)" stroke="none"/><circle cx="200" cy="800" r="4.289" fill="hsl(261, 60%, 38%)" stroke="none"/><circle cx="250" cy="800" r="4.289" fill="hsl(261, 60%, 38%)" stroke="none"/><circle cx="300" cy="800" r="4.289" fill="hsl(261, 60%, 38%)" stroke="none"/><circle cx="350" cy="800" r="4.289" fill="hsl(261, 60%, 38%)" stroke="none"/><circle cx="400" cy="800" r="4.289" fill="hsl(261, 60%, 38%)" stroke="none"/><circle cx="450" cy="800" r="4.289" fill="hsl(261, 60%, 38%)" stroke="none"/><circle cx="500" cy="800" r="4.289" fill="hsl(261, 60%, 38%)" stroke="none"/><circle cx="550" cy="800" r="4.289" fill="hsl(261, 60%, 38%)" stroke="none"/><circle cx="600" cy="800" r="4.289" fill="hsl(261, 60%, 38%)" stroke="none"/><circle cx="650" cy="800" r="4.289" fill="hsl(261, 60%, 38%)" stroke="none"/><circle cx="700" cy="800" r="4.289" fill="hsl(261, 60%, 38%)" stroke="none"/><circle cx="750" cy="800" r="4.289" fill="hsl(261, 60%, 38%)" stroke="none"/><circle cx="800" cy="800" r="4.289" fill="hsl(261, 60%, 38%)" stroke="none"/></g></svg>